<svg width="96" height="96" viewBox="0 0 96 96" fill="none" xmlns="http://www.w3.org/2000/svg">
<g id="Group 9">
<circle id="Oval Copy 3" cx="48" cy="48" r="48" fill="#FCB72B"/>
<g id="001-scooter">
<path id="Path" d="M45.0698 62.301C44.8521 62.301 44.6389 62.3895 44.4852 62.5433C44.3314 62.697 44.2429 62.9105 44.2429 63.1279C44.2429 63.3453 44.3314 63.5588 44.4852 63.7125C44.6389 63.8663 44.8521 63.9548 45.0698 63.9548C45.2872 63.9548 45.5003 63.8663 45.6544 63.7125C45.8082 63.5588 45.8967 63.3462 45.8967 63.1279C45.8967 62.9105 45.8082 62.697 45.6544 62.5433C45.5003 62.3895 45.2872 62.301 45.0698 62.301Z" fill="black"/>
<path id="Shape" fill-rule="evenodd" clip-rule="evenodd" d="M61.5391 48.4189L59.6121 39.7132C60.1321 39.6427 60.5908 39.3782 60.9134 38.9951C61.2943 39.2332 61.7435 39.3714 62.2248 39.3714H63.8786C64.3353 39.3714 64.7054 39.0013 64.7054 38.5446V35.2371C64.7054 34.7803 64.3353 34.4102 63.8786 34.4102H62.2248C61.7293 34.4102 61.2674 34.5568 60.8795 34.8084C60.501 34.3805 59.9483 34.1098 59.3333 34.1098H54.4522C53.5753 34.1098 52.8246 34.6599 52.5258 35.4328H50.5659C49.3805 35.4328 48.416 36.3973 48.416 37.5827C48.416 38.7681 49.3805 39.7325 50.5659 39.7325H54.822V41.3989C54.822 41.8556 55.1922 42.2258 55.6489 42.2258C56.1056 42.2258 56.4758 41.8556 56.4758 41.3989V39.7325H57.9228L59.9984 49.1108L56.0701 56.1075C55.6408 56.8692 54.8314 57.3424 53.957 57.3424H44.1505C43.74 53.8995 40.8046 51.2209 37.2532 51.2209C35.6818 51.2209 34.1993 51.7329 32.9658 52.7012L32.9609 52.7051C31.4922 53.8601 30.5691 55.5177 30.354 57.3424H28.6557C28.7636 51.3979 33.6328 46.5956 39.6021 46.5956H45.4677C45.9306 46.5956 46.3075 46.9725 46.3075 47.4357V54.8617C46.3075 55.3185 46.6776 55.6886 47.1344 55.6886H51.5342C53.3291 55.6886 54.9832 54.7125 55.8508 53.1418C56.2523 52.415 56.4651 51.592 56.4658 50.7623L56.47 48.0152C56.4706 47.5584 56.1008 47.1876 55.6441 47.187H55.6431C55.187 47.187 54.8169 47.5565 54.8162 48.0126L54.812 50.7603C54.8117 51.312 54.6702 51.8591 54.4034 52.342C53.8265 53.386 52.7271 54.0345 51.5342 54.0345H47.9612V47.4354C47.9612 47.0119 47.8547 46.6127 47.6676 46.2629C48.4105 45.8336 48.9118 45.0313 48.9118 44.1137C48.9118 42.7458 47.7988 41.6331 46.4312 41.6331H43.4131C43.1231 41.6331 42.845 41.6834 42.5862 41.7752V34.5219C42.5862 33.154 41.4732 32.0413 40.1056 32.0413H34.7713C30.9044 32.0413 27.6886 34.8805 27.0975 38.5833C27.0727 38.6621 27.0591 38.7458 27.0591 38.8327C27.0591 38.8353 27.0593 38.8378 27.0594 38.8403C27.0596 38.8428 27.0598 38.8451 27.0598 38.8475C27.0203 39.1641 27 39.4861 27 39.8126V44.114C27 45.3559 27.9176 46.3876 29.1105 46.5668L30.9415 48.3979C28.5155 50.6964 27 53.9464 27 57.5442V58.1692C27 58.6259 27.3702 58.9961 27.8269 58.9961H32.4738C32.4632 59.0494 32.4574 59.105 32.4574 59.1615C32.4574 60.3614 32.9015 61.4593 33.6328 62.301H27.8269C27.3702 62.301 27 62.6715 27 63.1279C27 63.5846 27.3702 63.9548 27.8269 63.9548H37.1576L37.1852 63.9557C37.2079 63.9565 37.2305 63.9573 37.2532 63.9573C39.8976 63.9573 42.0491 61.8059 42.0491 59.1615C42.0491 59.105 42.0433 59.0494 42.0326 58.9961H53.957C55.259 58.9961 56.4758 58.3721 57.2384 57.3398H58.2855C58.0501 57.9128 57.9251 58.5303 57.9251 59.1615C57.9251 60.3614 58.3692 61.4593 59.1005 62.301H48.3773C47.9205 62.301 47.5504 62.6715 47.5504 63.1279C47.5504 63.5846 47.9205 63.9548 48.3773 63.9548H62.6253C62.6573 63.9557 62.689 63.9573 62.7209 63.9573C65.3653 63.9573 67.5168 61.8059 67.5168 59.1615C67.5168 58.5303 67.3918 57.9128 67.1563 57.3398H68.509C68.9658 57.3398 69.3359 56.9696 69.3359 56.5129C69.3359 52.1482 65.8653 48.5788 61.5391 48.4189ZM43.4131 43.2871H46.4312C46.887 43.2871 47.2581 43.6579 47.2581 44.114C47.2581 44.5697 46.887 44.9409 46.4312 44.9409H43.4131C42.957 44.9409 42.5862 44.5697 42.5862 44.114C42.5862 43.6579 42.957 43.2871 43.4131 43.2871ZM28.656 39.711L28.656 39.711C28.6549 39.7448 28.6537 39.7787 28.6537 39.8126V44.114C28.6537 44.5697 29.0245 44.9409 29.4803 44.9409H29.4809H40.1053C40.5614 44.9409 40.9322 44.5697 40.9322 44.114V34.5223C40.9322 34.0662 40.5614 33.6954 40.1053 33.6954H34.7713C32.0268 33.6954 29.699 35.5119 28.9264 38.0061H37.7057C38.1625 38.0061 38.5326 38.3763 38.5326 38.833C38.5326 39.2897 38.1625 39.6599 37.7057 39.6599H28.6576L28.656 39.711ZM31.4771 46.5946H33.3692C32.9719 46.8214 32.5885 47.0697 32.2196 47.3372L31.4771 46.5946ZM37.2852 62.3026C39.0029 62.2855 40.3953 60.8834 40.3953 59.1615C40.3953 59.105 40.4012 59.0494 40.4118 58.9961H34.0946C34.1053 59.0494 34.1111 59.105 34.1111 59.1615C34.1111 60.8621 35.4693 62.2503 37.1579 62.301H37.2532C37.2593 62.301 37.2654 62.3014 37.2715 62.3019C37.2761 62.3022 37.2806 62.3025 37.2852 62.3026ZM32.0226 57.3424C32.2274 56.0287 32.9173 54.842 33.9829 54.0051C33.9855 54.0035 33.9877 54.0013 33.9903 53.9997C34.9289 53.2639 36.0572 52.8747 37.2532 52.8747C39.8915 52.8747 42.0849 54.8143 42.4832 57.3424H32.0226ZM63.0517 36.0639H62.2248C61.7687 36.0639 61.3979 36.4351 61.3979 36.8908C61.3979 37.3469 61.7687 37.7177 62.2248 37.7177H63.0517V36.0639ZM50.0698 37.5827C50.0698 37.3091 50.2923 37.0865 50.5659 37.0865H52.3876V37.6679C52.3876 37.8088 52.4018 37.946 52.4286 38.0788H50.5659C50.2923 38.0788 50.0698 37.8562 50.0698 37.5827ZM54.4522 38.0788H55.6489H59.3333C59.5598 38.0788 59.7442 37.8947 59.7442 37.6679V36.1744C59.7442 35.948 59.5598 35.7635 59.3333 35.7635H54.4522C54.2258 35.7635 54.0413 35.948 54.0413 36.1744V37.6679C54.0413 37.8947 54.2258 38.0788 54.4522 38.0788ZM65.863 59.1615C65.863 60.8834 64.4706 62.2855 62.7529 62.3026C62.7507 62.3026 62.7484 62.3024 62.7462 62.3023C62.7438 62.3022 62.7415 62.302 62.7392 62.3019C62.7331 62.3014 62.727 62.301 62.7209 62.301H62.6256C60.937 62.2503 59.5788 60.8621 59.5788 59.1615C59.5788 58.5045 59.7836 57.8695 60.1609 57.3398H65.281C65.6583 57.8695 65.863 58.5045 65.863 59.1615ZM61.3563 50.0701L58.2032 55.686H67.6292C67.2274 52.5597 64.5762 50.1292 61.3563 50.0701Z" fill="#495567"/>
<path id="Path_2" d="M55.6488 45.5333C56.1055 45.5333 56.4757 45.1631 56.4757 44.7064C56.4757 44.2497 56.1055 43.8795 55.6488 43.8795H55.6459C55.1892 43.8795 54.8203 44.2497 54.8203 44.7064C54.8203 45.1631 55.1921 45.5333 55.6488 45.5333Z" fill="black"/>
</g>
</g>
</svg>
